<svg width="64" height="64" viewBox="0 0 64 64" xmlns="http://www.w3.org/2000/svg">
  <defs>
    <linearGradient id="topFace" x1="0%" y1="0%" x2="100%" y2="100%">
      <stop offset="0%" style="stop-color:#f5f5f7;stop-opacity:1" />
      <stop offset="100%" style="stop-color:#e8e8ed;stop-opacity:1" />
    </linearGradient>
    <linearGradient id="leftFace" x1="0%" y1="0%" x2="100%" y2="100%">
      <stop offset="0%" style="stop-color:#d1d1d6;stop-opacity:1" />
      <stop offset="100%" style="stop-color:#c7c7cc;stop-opacity:1" />
    </linearGradient>
    <linearGradient id="rightFace" x1="0%" y1="0%" x2="100%" y2="100%">
      <stop offset="0%" style="stop-color:#b8b8bd;stop-opacity:1" />
      <stop offset="100%" style="stop-color:#a8a8ad;stop-opacity:1" />
    </linearGradient>
    <filter id="dropShadow" x="-50%" y="-50%" width="200%" height="200%">
      <feDropShadow dx="0" dy="2" stdDeviation="3" flood-color="#000000" flood-opacity="0.15"/>
    </filter>
  </defs>
  
  <!-- Left face -->
  <path d="M14 20 L14 40 L28 48 L28 28 Z" fill="url(#leftFace)" filter="url(#dropShadow)"/>
  
  <!-- Right face -->
  <path d="M28 28 L28 48 L50 40 L50 20 Z" fill="url(#rightFace)"/>
  
  <!-- Top face -->
  <path d="M14 20 L28 12 L50 20 L28 28 Z" fill="url(#topFace)"/>
  
  <!-- Edges -->
  <path d="M14 20 L28 12 L50 20 L28 28 Z" fill="none" stroke="#9999a1" stroke-width="0.5"/>
  <path d="M14 20 L14 40 L28 48 L28 28" fill="none" stroke="#9999a1" stroke-width="0.5"/>
  <path d="M28 28 L28 48 L50 40 L50 20" fill="none" stroke="#9999a1" stroke-width="0.5"/>
</svg>