<svg width="64" height="64" viewBox="0 0 64 64" xmlns="http://www.w3.org/2000/svg">
  <defs>
    <linearGradient id="folderGrad" x1="0%" y1="0%" x2="0%" y2="100%">
      <stop offset="0%" style="stop-color:#4A9EFF;stop-opacity:1" />
      <stop offset="100%" style="stop-color:#2B7DE9;stop-opacity:1" />
    </linearGradient>
    <linearGradient id="arrowGrad" x1="0%" y1="0%" x2="0%" y2="100%">
      <stop offset="0%" style="stop-color:#FFFFFF;stop-opacity:0.9" />
      <stop offset="100%" style="stop-color:#FFFFFF;stop-opacity:0.7" />
    </linearGradient>
    <filter id="dropShadow">
      <feDropShadow dx="0" dy="2" stdDeviation="3" flood-opacity="0.2"/>
    </filter>
  </defs>
  
  <g filter="url(#dropShadow)">
    <path d="M8 16 C8 13.79 9.79 12 12 12 L24 12 L28 16 L52 16 C54.21 16 56 17.79 56 20 L56 48 C56 50.21 54.21 52 52 52 L12 52 C9.79 52 8 50.21 8 48 Z" 
          fill="url(#folderGrad)" />
    
    <path d="M32 26 L44 32 L38 32 L38 42 L26 42 L26 32 L20 32 Z" 
          fill="url(#arrowGrad)" />
  </g>
</svg>